<svg width="26" height="29" viewBox="0 0 26 29" fill="none" xmlns="http://www.w3.org/2000/svg">
<path d="M13 2.10715C12.3459 2.10695 11.7079 2.30959 11.1738 2.68714C10.6396 3.0647 10.2358 3.59859 10.0177 4.21526C9.92127 4.47445 9.72681 4.68535 9.47627 4.80248C9.22574 4.91961 8.93921 4.93358 8.67847 4.84138C8.41773 4.74918 8.20367 4.5582 8.08245 4.30962C7.96123 4.06104 7.94257 3.77477 8.03049 3.51256C8.39415 2.48521 9.06727 1.59582 9.95722 0.966791C10.8472 0.337758 11.9102 0 13 0C14.0898 0 15.1528 0.337758 16.0428 0.966791C16.9327 1.59582 17.6059 2.48521 17.9695 3.51256C18.0574 3.77477 18.0388 4.06104 17.9175 4.30962C17.7963 4.5582 17.5823 4.74918 17.3215 4.84138C17.0608 4.93358 16.7743 4.91961 16.5237 4.80248C16.2732 4.68535 16.0787 4.47445 15.9823 4.21526C15.7641 3.5987 15.3601 3.06493 14.8261 2.6874C14.292 2.30988 13.654 2.10716 13 2.10715ZM0 6.67472C0 6.39517 0.111052 6.12706 0.308725 5.92939C0.506399 5.73172 0.774502 5.62066 1.05405 5.62066H24.9459C25.2255 5.62066 25.4936 5.73172 25.6913 5.92939C25.8889 6.12706 26 6.39517 26 6.67472C26 6.95427 25.8889 7.22237 25.6913 7.42005C25.4936 7.61772 25.2255 7.72877 24.9459 7.72877H1.05405C0.774502 7.72877 0.506399 7.61772 0.308725 7.42005C0.111052 7.22237 0 6.95427 0 6.67472ZM4.44811 10.118C4.42947 9.83897 4.30077 9.5788 4.09031 9.39471C3.87986 9.21061 3.60489 9.11765 3.32589 9.13629C3.0469 9.15492 2.78674 9.28363 2.60264 9.49408C2.41854 9.70454 2.32558 9.97951 2.34422 10.2585L2.99632 20.0289C3.11578 21.8306 3.21276 23.2866 3.44043 24.4306C3.67795 25.6182 4.07989 26.6104 4.91189 27.3876C5.74249 28.1662 6.76 28.5021 7.96162 28.6581C9.11687 28.8099 10.5757 28.8099 12.383 28.8099H13.6184C15.4243 28.8099 16.8845 28.8099 18.0398 28.6581C19.24 28.5021 20.2575 28.1662 21.0895 27.3876C21.9201 26.6104 22.3221 25.6168 22.5596 24.4306C22.7872 23.2866 22.8828 21.8306 23.0037 20.0289L23.6558 10.2585C23.6744 9.97951 23.5815 9.70454 23.3974 9.49408C23.2133 9.28363 22.9531 9.15492 22.6741 9.13629C22.3951 9.11765 22.1201 9.21061 21.9097 9.39471C21.6992 9.5788 21.5705 9.83897 21.5519 10.118L20.9054 19.8153C20.7789 21.7083 20.689 23.0266 20.4922 24.0174C20.2997 24.9801 20.0326 25.4889 19.649 25.8487C19.2639 26.2084 18.7383 26.4417 17.7657 26.5682C16.7637 26.6989 15.4426 26.7017 13.5439 26.7017H12.4561C10.5588 26.7017 9.23773 26.6989 8.23427 26.5682C7.26173 26.4417 6.73611 26.2084 6.35103 25.8487C5.96735 25.4889 5.70032 24.9801 5.50778 24.0174C5.31103 23.0266 5.22108 21.7083 5.09459 19.8153L4.44811 10.118Z" fill="#91A6FF"/>
<path d="M9.3809 12.6533C9.65894 12.6254 9.93667 12.7091 10.153 12.886C10.3694 13.0628 10.5067 13.3183 10.5347 13.5963L11.2374 20.6234C11.258 20.8975 11.1707 21.1689 10.994 21.3796C10.8173 21.5902 10.5653 21.7235 10.2918 21.751C10.0182 21.7785 9.74474 21.6981 9.52967 21.5268C9.31461 21.3555 9.17498 21.107 9.14058 20.8342L8.43787 13.8072C8.41001 13.5291 8.49369 13.2514 8.67053 13.035C8.84736 12.8186 9.10288 12.6814 9.3809 12.6533ZM17.5618 13.8072C17.5823 13.533 17.495 13.2616 17.3183 13.0509C17.1417 12.8403 16.8897 12.707 16.6161 12.6795C16.3425 12.652 16.0691 12.7324 15.854 12.9037C15.6389 13.075 15.4993 13.3236 15.4649 13.5963L14.7622 20.6234C14.7416 20.8975 14.829 21.1689 15.0056 21.3796C15.1823 21.5902 15.4343 21.7235 15.7079 21.751C15.9814 21.7785 16.2549 21.6981 16.47 21.5268C16.685 21.3555 16.8247 21.107 16.8591 20.8342L17.5618 13.8072Z" fill="#91A6FF"/>
</svg>
