<svg width="559" height="653" viewBox="0 0 559 653" fill="none" xmlns="http://www.w3.org/2000/svg">
<path fill-rule="evenodd" clip-rule="evenodd" d="M263.085 45.4399C336.259 41.8211 439.76 -35.754 476.599 20.235C524.228 92.6254 383.057 175.587 402.625 257.52C415.691 312.233 535.605 297.947 555.593 351.001C573.597 398.788 515.658 442.319 489.021 486.845C454.235 544.992 448.823 640.926 375.474 652.088C298.58 663.79 262.199 559.485 190.507 532.273C132.048 510.085 30.707 562.896 4.99352 511.468C-24.8868 451.707 88.958 400.829 92.1491 335.555C94.4114 289.277 23.8052 261.675 19.4616 215.514C13.7399 154.706 10.2166 78.4437 64.397 40.6204C117.461 3.57611 195.567 48.779 263.085 45.4399Z" fill="#214076" fill-opacity="0.11"/>
</svg>
